<mxfile host="app.diagrams.net" modified="2022-09-23T15:25:20.981Z" agent="5.0 (Windows NT 10.0; Win64; x64) AppleWebKit/537.36 (KHTML, like Gecko) Chrome/80.0.3987.163 Safari/537.36" etag="kZCmH0BUVf3Z14d8qPMV" version="20.2.1" type="github">
  <diagram id="jSDeRFhUboUGrbBFy3Do" name="第 1 页">
    <mxGraphModel dx="1038" dy="589" grid="0" gridSize="10" guides="1" tooltips="1" connect="1" arrows="1" fold="1" page="1" pageScale="1" pageWidth="827" pageHeight="1169" background="#F4F1DE" math="0" shadow="0">
      <root>
        <mxCell id="0" />
        <mxCell id="1" parent="0" />
        <mxCell id="g_YQSqxhmDYYF9oPUH9T-1" value="" style="rounded=0;whiteSpace=wrap;html=1;fontColor=#393C56;strokeColor=#000000;fillColor=#F5F5F5;sketch=0;shadow=0;" vertex="1" parent="1">
          <mxGeometry x="165" y="39" width="504" height="359" as="geometry" />
        </mxCell>
        <mxCell id="g_YQSqxhmDYYF9oPUH9T-2" value="" style="rounded=0;whiteSpace=wrap;html=1;fontColor=#393C56;strokeColor=#E07A5F;fillColor=#F5F5F5;" vertex="1" parent="1">
          <mxGeometry x="196" y="69" width="438" height="299" as="geometry" />
        </mxCell>
        <mxCell id="g_YQSqxhmDYYF9oPUH9T-3" value="" style="endArrow=none;html=1;rounded=1;fontColor=#393C56;strokeColor=#E07A5F;fillColor=#F2CC8F;exitX=0;exitY=0.25;exitDx=0;exitDy=0;entryX=0.003;entryY=0.047;entryDx=0;entryDy=0;entryPerimeter=0;" edge="1" parent="1" source="g_YQSqxhmDYYF9oPUH9T-1" target="g_YQSqxhmDYYF9oPUH9T-2">
          <mxGeometry width="50" height="50" relative="1" as="geometry">
            <mxPoint x="387" y="229" as="sourcePoint" />
            <mxPoint x="437" y="179" as="targetPoint" />
            <Array as="points" />
          </mxGeometry>
        </mxCell>
        <mxCell id="g_YQSqxhmDYYF9oPUH9T-4" value="" style="endArrow=none;html=1;rounded=1;fontColor=#393C56;strokeColor=#E07A5F;fillColor=#F2CC8F;exitX=0;exitY=0.25;exitDx=0;exitDy=0;entryX=0.003;entryY=0.047;entryDx=0;entryDy=0;entryPerimeter=0;" edge="1" parent="1">
          <mxGeometry width="50" height="50" relative="1" as="geometry">
            <mxPoint x="165" y="173.7000000000001" as="sourcePoint" />
            <mxPoint x="197.31400000000008" y="128.003" as="targetPoint" />
            <Array as="points" />
          </mxGeometry>
        </mxCell>
        <mxCell id="g_YQSqxhmDYYF9oPUH9T-5" value="" style="endArrow=none;html=1;rounded=1;fontColor=#393C56;strokeColor=#E07A5F;fillColor=#F2CC8F;exitX=0;exitY=0.25;exitDx=0;exitDy=0;entryX=0.003;entryY=0.047;entryDx=0;entryDy=0;entryPerimeter=0;" edge="1" parent="1">
          <mxGeometry width="50" height="50" relative="1" as="geometry">
            <mxPoint x="165" y="215.70000000000005" as="sourcePoint" />
            <mxPoint x="197.31400000000008" y="170.00299999999993" as="targetPoint" />
            <Array as="points" />
          </mxGeometry>
        </mxCell>
        <mxCell id="g_YQSqxhmDYYF9oPUH9T-6" value="" style="endArrow=none;dashed=1;html=1;dashPattern=1 3;strokeWidth=2;rounded=1;fontColor=#333333;fillColor=#F2CC8F;exitX=0;exitY=0;exitDx=0;exitDy=0;entryX=1;entryY=1;entryDx=0;entryDy=0;fontSize=12;" edge="1" parent="1" source="g_YQSqxhmDYYF9oPUH9T-2" target="g_YQSqxhmDYYF9oPUH9T-2">
          <mxGeometry width="50" height="50" relative="1" as="geometry">
            <mxPoint x="387" y="229" as="sourcePoint" />
            <mxPoint x="437" y="179" as="targetPoint" />
          </mxGeometry>
        </mxCell>
        <mxCell id="g_YQSqxhmDYYF9oPUH9T-7" value="" style="ellipse;whiteSpace=wrap;html=1;aspect=fixed;shadow=0;sketch=0;fontSize=12;strokeColor=#b85450;fillColor=#f8cecc;" vertex="1" parent="1">
          <mxGeometry x="196" y="342" width="26" height="26" as="geometry" />
        </mxCell>
        <mxCell id="g_YQSqxhmDYYF9oPUH9T-8" value="" style="ellipse;whiteSpace=wrap;html=1;aspect=fixed;shadow=0;sketch=0;fontSize=12;strokeColor=#82b366;fillColor=#d5e8d4;" vertex="1" parent="1">
          <mxGeometry x="607" y="71" width="27" height="27" as="geometry" />
        </mxCell>
        <mxCell id="g_YQSqxhmDYYF9oPUH9T-9" value="" style="shape=image;verticalLabelPosition=bottom;labelBackgroundColor=default;verticalAlign=top;aspect=fixed;imageAspect=0;image=data:image/png,iVBORw0KGgoAAAANSUhEUgAAAikAAAIICAYAAACrY36NAAAgAElEQVR4Ae2dC3dc1ZWt+T0BLMAkNgb8wvgp62GZX5J00gRihySdhkEg996+4ZGk01j1rpLK4Ju+I51LwstpxxgwWJbsf7Pu2GWOOedEuzR31ZFqqfgY46CXJZdnzbX3t+dap/TA6guHLeVaeeGwrfx4k6vw+UO28uN/vHo/PmTla/CzwvdudcX+zvvfd8hWXvjm6r1w2O5dh6z3wtfXJn9/+fEUPh78POGx3X8Mm//Z1ReO2DfX5n9my3//13/HN/+u7N/3j2+7Lxy2cS/l7xn3z4z7GPn+8Z9nNNxZDcetmd4LR6x4Vf/4x3+M/7gmhZ9Z9tp2/T383M31H0UXdV/a/M8dsZUXNr+KHi57Ovv4sIX/Hrj8/e8YFxrgATyAB/AAHsADnjwApABoACoewAN4AA/gAZceAFIwpktjeiJ5HgsnSzyAB/DAZDwApAApQAoewAN4AA/gAZceAFIwpktjcmqZzKkF3dEdD+ABTx4AUoAUIAUP4AE8gAfwgEsPACkY06UxPZE8j4WTJR7AA3hgMh4AUoAUIAUP4AE8gAfwgEsPACkY06UxObVM5tSC7uiOB/CAJw8AKUAKkIIH8AAewAN4wKUHgBSM6dKYnkiex8LJEg/gATwwGQ8AKUAKkIIH8AAewAN4wKUHgBSM6dKYnFomc2pBd3THA3jAkweAFCAFSMEDeAAP4AE84NIDQArGdGlMTyTPY+FkiQfwAB6YjAeAFCAFSMEDeAAP4AE84NIDQArGdGlMTi2TObWgO7rjATzgyQNACpACpOABPIAH8AAecOkBIAVjujSmJ5LnsXCyxAN4AA9MxgNACpACpOABPIAH8AAecOkBIAVjujQmp5bJnFrQHd3xAB7w5AEgBUgBUvAAHsADeAAPuPQAkIIxXRrTE8nzWDhZ4gE8gAcm4wEgBUgBUvAAHsADeAAPuPQAkIIxXRqTU8tkTi3oju54AA948gCQAqQAKXgAD+ABPIAHXHoASMGYLo3pieR5LJws8QAewAOT8QCQAqQAKXgAD+ABPIAHXHoASMGYLo3JqWUypxZ0R3c8gAc8eQBIAVKAFDyAB/AAHsADLj0ApGBMl8b0RPI8Fk6WeAAP4IHJeABIAVKAFDyAB/AAHsADLj0ApGBMl8bk1DKZUwu6ozsewAOePACkAClACh7AA3gAD+ABlx4AUjCmS2N6InkeCydLPIAH8MBkPOAGUvo/+I71f/Cg9f/JyfWDB9m8AbjKPdD/fvD5d6z/Tx4vJ7V3fw3wqFH2mNBK87A3ncLjyZ5Db28daTXYjycDJWUYdAEp/V8+Ziu/f9JW6oes1zzs4lp552nrX5ipfJMqPwF87KMQduJ5CAC++uOHrPPmPmvVnnJztetPW7dx0EXdfVP/h6xTf9radT86heesM9DJzzoV9Oo2D7nTKWjlz1Nhb0Grb2osvteG/W/13/bZ5ecfmvge6AJSVt86YN2rs9a5vWSdu8+5uLo3Fqz/8t6JP0E7sXnyd+wMKPV/9KCt/GzG6v91zC7dmnNz1dbmrbl+zkXdZfXfurNk9dsLtrw270an8Jw11hetfee8L602llxplHnbm6eCt4KvvHnqnq981V/nswXrXXnW+hcnf1AHUiJQBKTszMb9bQIkIEU/gAApCVoBKTI0Aimir4CU4gZIklLU49u0cX+b/q1AirhAfn3iJUnR9GoBKUBK5LCdJZPJb4GU4qYMpBT1+DZt3N+mfyuQom26WSwPpGh6ASmaTpmvaPcIegEpxU0ZSCnq8W3auL9N/1YgRVgcvz4R0u5J0IokhSSFJGV7N1EgZXv1/TaBgOd/K5CSsPEyOKtvvECKrhWDs5pWJCnFTRlIKerheaPlsY3+XAEpQErybIBwQqbdk+Yr2j2CXkBKcaEHUop6AALTqQeQIiyOtHu0k24OXoCUNF8BKYJeQEpxEwJSinoAKdOpB5AiLI5ACpCSA7CqkyduQRZrEEgpbkJASlEPIGU69QBSxAWSW5CTQIUkJc1XJCmCXkBKcRMCUop6ACnTqQeQIiyOJClJgDK4rZbBWVkzkhSxBoGU4iYEpBT1AFKmUw8gRVwgSVLkTRdI0T010Iq7ezRvASnFTQhIKeoBpEynHkCKvqHwOikJWpGkaBsvv7tH1onf3fP94iYEpBT1AFKmUw8gJWHj5XVS5A2FmZQ0XzGTIuhFklLchICUoh5AynTqAaQIiyMzKTKcZHe+AClpvgJSBL2AlOImBKQU9QBSplMPIEVYHIEUIIVbkJM9kAFrZW+BlOImBKQU9QBSplMPIAVIqWwTyW3kJClpviJJEfQCUoqbEJBS1ANImU49gBRhcSRJST5FAylpvgJSBL2AlOImBKQU9QBSplMPIEVYHIEUICWXElWdPPE6KWINAinFTQhIKeoBpEynHkCKuEDyOilJoEKSkuYrkhRBLyCluAkBKUU9gJTp1ANIERZHkpQkQAlJA5CS5isgRdALSCluQkBKUQ8gZTr1AFKExRFIAVJo9yR7oOq2GC/mxou5GSAynSAy7HkFUoCUyjcTkpSkDZ2ZFLEGSVKKGxRJSlGPYRsdX9u9WgEp4gLJTEraxsvL4st6ASliDQIpxY0GSCnqAYhMpx5AirhAAinypstMiu6pgVb8gkHNW0BKcRMCUop6ACnTqQeQom8o/ILBBK1IUrSN92v4ZXBW8BaQUtyEgJSiHkDKdOoBpAiLI4Oz8oabzbdwd0+ar4AUQS8gpbgJASlFPYCU6dQDSBEWRyAFSOHunmQPZMBa2VsgpbgJASlFPYCU6dQDSAFSKttEchs5SUqar0hSBL2AlOImBKQU9QBSplMPIEVYHElSkk/RQEqar4AUQS8gpbgJASlFPYCU6dQDSBEWRyAFSMmlRFUnT9yCLNYgkFLchICUoh5AynTqAaSICyS3ICeBCklKmq9IUgS9gJTiJgSkFPUAUqZTDyBFWBxJUpIAJSQNQEqar4AUQS8gpbgJASlFPYCU6dQDSBEWRyAFSKHdk+yBqtti/O4efncPv7un5IFvA5gBKUBK5ZsJSUrShs5MiliDJCnFk/Lqv+2z7p9OWPdvZ61zfc7F1f3wjK3+z+9Z/6VH3F2rP50xV9dLM+40yp43Tzqt/OIR676+1xp/OW7Lt+acXPNWW1uwxvqihQXcy9XcOGf12wtWW5t3otO952ug04YfncLzFbQKLQw/nspp5chTmVbePBWeN2/1174xb90rx6x/YWbiB2ozswcmfYpdfWWvrdQOWm/lqPX6z/i4Vo7ayjtP28rvn3R19X53wDpv73d1dX/7hK387oArncLz5k6r3z9h7dpT1rh6erABh03YzbW+OFgow2Lp5XKjTe55atz2o0/+eXKplSMvoVWab5vXz1rn3WeAlPtw9KOHrP+TPQNB+hdnzMX1yl7rvX/Kup8tuLpan5612rXT7q72jTlXOoXnzaVW109ba23R2nfOu7my1GJwGg8ncgdXOO2GjSUMhXrSKkCKB33yj6F2e8GVRtnzVXeqVUhUssfo5W3wev45nfT7YY9pXj5sqxf2kKTcBxVnMwr9n85Y95PZpH7ndvSbyz+zsX7OLt2ac3Ut35ofbCblxzrpj8Pm60+rOXdaZZDiSauwSIeFO2wik/ZR/u8fQIqz+guQkn+MXt4PkOLJU+GxhNamN0+F5yt43ZNWy9dOWaMPpEyc0IYBEpCigxCQkqIVkKIsxkCK7ikgJUErIEWCISDFWWqyGawAKXrhAykpWgEpQIruF0UrIEXXkyRF0wpIAVJGjmdp94i30N19bnDXg7LI7+SfCZP8Yc7CSyQfHgftHt1TtHt0rWj36FrR7ine8ZsPDlzc3ZN/QF7eJ0nRiDts8CQpKVoBKQoU0u7RPUWSkqAV7R7aPV4gY9zHAaTohQ+kpGgFpAApul8UrYAUXU/aPZpWtHto94wc99Pu0SNU7u7RtKLdo+k0uAsj3FbL3T3S+kW7J8FX3N0TvZGGdk8EmEhSNOKm3aPrdE8rkhQlHaDdo/uKJCVBK9o9tHvGbbN4+X4gRS982j0pWgEpQIruF0UrIEXXk3aPphXtnkh64QVQwuMAUjQz30sHeDE3ZTO5pxWQomhFkqLXH5CSoBVJCkmKJ9AY57EAKXrhk6SkaAWkACm6XxStgBRdT5IUTSuSFJIUafBss9fSYHBWH0ZjcFbTisFZTScGZ3WdglYMzup68TopvE5KdHI4lraQpGjEfa+FQbtHOfHe04okRdGKdo9efyQpCVrR7qHdE9v0d9vngRS98Gn3pGgFpAApul8UrYAUXU/aPZpWtHto99DuuatHoZu1vZTP0e7RNKbdo+lEu0fXiXZPmla0e2j30O7ZxhegIknRTie0exJ0Wpsf/Pr69p3zIwO9ArKpf4bf3aNvvsyk6FoBKUAKkAKkSL1YJV4f58/wCwY1UGEmRdMpeJF2T4JWzKRI6yDtHto9I58OubtHP53Q7tG0ot2j6US7R9eJdk+aViQpJCkkKSQp0glinJRE+V6SFO3US5Ki6USSous00IokRVoHSVJIUkhSGJwd2QOpcxRb/XmSFP3Uy0yKrhUzKbpWJCkkKSQpJCnSCUJJQ8b5MyQp2smXJEXTiSRF14kkRdeKJIUkZeRTNDMp+umEmRRNK5IUTSdmUnSdmElJ04okhSSFJIUkhSQl0mIDUvQNhXaPrhXtHl0rIAVIAVKAFCAFSBk5wczmeoAUfeMFUnStgBQgBUgBUoAUIAVIiXggg7Aq3wIpQEoVvw7HzOyBKn7QtP0MfndPwpDVLX7BoDpMy+Cs5isGZzWdGJzVdWJwVteKwVkGZ0c+0TE4q59OGJzVtGImRdMppAy0e3StSFJ0rWj30O6h3UO7h3ZPJOoHUhI2k9uLFtIwNTnbiT/Hy+Lrzwe/BVnTiiSFJIUkJbJhVtkTJ0nRNl8gRdOJJEXXKWhFkqLrRZJCkkKSso2nP34LsnY6CadqZlI0rZhJ0XQazFncXhj50FPloaD8s4AUIKWKWVUGZyOpDoOz+iIJpKRoNWetjSVXmwpJSsJmQrtH9i6QkuCr9UVXLUTaPREwqIK6qvoZQErKxsvdPersAUmK5iuSFE0nkhRdp4FW/IJBCYaAFCBFPo2UI1Tu7tFPJ8ykaFqRpGg6hVrk7h5dK5IUXStmUphJYSaFmRTpBKEmIqP+OZIU7eRLkqLpRJKi60SSomtFkrIbkpSLM9b9+Iy175x3dYUkJcyAuLrW5q25seRKp/C8NR1qVRtodc6VVlmS4slTQadwugzzO55qsHFzzmqfnrHl66fdXPUbs9b5YtHd1bhx1o1G2fNV/+ystZ15Kvg7eN1V/V07bc3Lh231wp7kA35VIxfZz2FwNgJM/Ysz1vrw1MA8wUCervrtBfN2edIn/1i86RQeT/7xeXjfo0bZYwrtFQ8aZY+h+f+OW7N70FrNp91c7dZB67aPWK/j6wqPy5NO4bE03ztijS/vAXD2nHp5m3new9vG9Vlrv3vU+kBKvA+VUdSk3q5enLHGBycsxM6ertDnDadLb1coLE86hcfiUav7qYUjX4UXAwsLtSdPZTqFRMWTr1rdQ9b99ePWe/kx6738qItr5eXHbPWVve6u8Li8aJQ9js7b+612Y9aVp4K/vdVf+8acdd87Zv0LMyQpk4KQrf7e1Yt7rP7X4y7mGPLzD/X1xZGHbstDuFV93L573sIrOeYfp4f3A6RU9W+s4ucEnVp3ltxpNWhBrZ9zpVXQKQNfD17KHkP73w/Y6gsPT3zh3mr94uubH4BXXnnMlv9+2t1aFdr4Vawxlf2Mzxasd+VZCx2FSXuJdk+k3QOk6JPpQIqmFZCi6RQWWiBl80120hvGbv/7gRSxBoEU/wUIpIhmvvucASmaVkCKphOQ4n993K2wAqSINQik+C9CIEU0M5Aix7RAiu4pkhT/a+RuBBUgRaxBIMV/AQIpopmBFCBlG35ZJJDif40EUvTXHclmmmJvmUmJ+52ZFGZS5E02NpRFu0cDOpIUTSfaPfEFezeCgafHTJIi1iBJiv8iJEkRzUySIkMekKJ7iiTF/xrpCT7UxwKkiDUIpPgvQCBFNDOQAqTQ7pn4bZrqJv1t/3NAiriuAylASqw3udXneZ0UvQ/M66RoWvE6KZpOoTZ5nRT/a/cwEANSgJSpOVGQpIhmJkkhSSFJmZp1b9gGPw1fA1LEdZ0kxT+NAymimYEUIAVIAVIiNyB4AxsgRVzXgRQgZau2TuzrtHv0aJ52j6YV7R5NJ9o9/tftraAISAFSpuZEQZIimpkkhSSFJGVq1r2tNvnd/nUgRVzXSVL8EzmQIpoZSAFSgBQghXbPWL+0kBdzizMBL+YWKS4gBUiJvXjdqJ/ndVJ0T/E6KfFFe7enGZN8/CQpYg2SpPgvQCBFNDNJCkkKSQpJSuSwN0kg2ezvBlLEdR1IAVJig7FbfZ7BWX3IkcFZTSsGZzWdGJz1v25vBib5zwEpQMrUnChIUkQzk6SQpJCkTM26l9/Qp/F9IEVc10lS/BM5kCKaGUgBUoAUIIV2D4Oz2+QBBmcjwgIpQMqoA7Kx72NwVvcUg7P+D3K7MWkhSRFrkCTFfwECKaKZSVJIUkhSSFIihz1vIAOkiOs6kAKkbDUgG/s6g7P6kCODs5pWDM5qOjE463/d3gqKgBQgZWpOFCQpoplJUkhSSFKmZt3bapPf7V8HUsR1nSTFP5EDKaKZgRQgBUgBUmj3MDi7TR5gcDYiLJACpMQGYEf9PIOzuqcYnPV/kNuNqQpJiliDJCn+CxBIEc1MkkKSQpJCkhI57HkDGSBFXNeBFCAlNhi71ecZnNWHHBmc1bRicFbTicFZ/+v2VlAEpAApU3OiIEkRzUySQpJCkjI1695Wm/xu/zqQIq7rJCn+iRxIEc0MpAApQAqQQruHwdlt8gCDsxFhgRQgZdQB2dj3MTire4rBWf8Hud2YqpCkiDVIkuK/AIEU0cwkKSQpJCkkKZHDnjeQAVLEdR1IAVK2GpCNfZ3BWX3IkcFZTSsGZzWdGJz1v25vBUVACpAyNScKkhTRzCQpJCkkKVOz7m21ye/2rwMp4rpOkuKfyIEU0cxACpACpAAptHsYnN0mDzA4GxEWSAFSYgOwo36ewVndUwzO+j/I7cZUhSRFrEGSFP8F2L84Y80PTlr99oKrq7G+aB6vMP+BVls8N2sL1vhizpr/95g1e4f8XP/5jDWvnnbnK29+Co+n8x9P2uqLD7tKTvoXZmzl7QO28vsnXV3d3z1hnbf3u7rafzhgzc5BP7WXrQMfn3JVf81Pz1r7vWcseGvSMEqSEklSAqR0PjpjrY0lV1cAlOW1OXdXc/2cK53C8+ZOq5uzVvvbKeu8sc9WXppxc3V+s8+a7x1x5akwzBuev+aGL1/13nnK+i/umfjCnd84Vl993DqfzFrn73OursbfTlvtkxOursYfj1rv5Ufd1F62DjRXD/uqv2unrXn5iK1emLzXgZQYpPx0xrofz8rzBqO2AFK/r7F+bqzeZ+yuoXE+v7w2PwCU1H/Ldv/5AE7j/Lsq/94vZgcLdu/1x63/wwfdXL3XHrfmyiFXWgVPBUgJbZ/t9knKz++987Q/SHn9e9a5uWid9fOurvpXC3bp5llXV/3Pz1po5Xuqv/BYWu2Dvurv2ilr9A8DKfnTgLf3+wFSwulkG4YCx/mZLiHlllNI2XAGKZ/P2vLHJ6z3q72uTuK9V/cO4u/KoeyWfmtv+e/OIKV957yrGlzxCCm//p51bp1zpVNY40ILuPy8Tvrj+vvHrf+TyacD5f2u1QJSyppkH5OkDEtSgBRpkVkGUiSdLgEpmk63QjvzXpICpGw9v7cKpMi+AlK0g8MyScrWhZdR1KTekqRoZg4nIyBF1ApIkTcTIEVfI4EUsf5uzRmQomkFpETSi0kByWZ/L5CimRlI0XUiSdG1AlKAlO1oDQEpWg0CKUDKyP1jZlLE+/zvPje4M2Q7FrqRfyZJCknKNqx9JCnaxhvqFkjRtAJStqFQN0tDxvkcSYpm5lD4tHtErYAUIGUb1j4gRaw/IEWvP2ZS9ChzHNAY53uBFL3wgRRRKyBFXyQZnJXvAANSxPoDUvT6A1KAlFFvQ6bdQ7tnHPje7Hu5BVn3FLcg61pxC7K+z3ELclwrbkGOxK8kKfrphCRF1IokRT/JkaSQpIzxOjuxuTFmUrS1ipmUCBhsdsqb1OeAFM3MzKToOnF3j64Vd/fET5blNZF2j+4rIEXTCkgBUri7ZwdeyTf83pfYiWoinydJkZ8PIAVI2Y4aBVKAFDmiLJ8GvH1MkqKZmSRF14kkRdcKSAFSgBS9XqrWiiSFJIUkhSTFDdAzOKsPgzI4q2vF4KwOmgzOxrVicDYCTCQpOsUzOCtqRbuHdk9kvRknSWYmRaw/bkHW649bkOPUNE6xVvm9QIpe+ECKqBWQoi+S3N0jJ21Ailh/QIpef0AKkMLrpOix8ahaMTir1RntHt2LtHt0rWj3aPUXDte0e+Ja0e6JxK8kKfrphCRF1IokRT/JkaSQpPA6KXK9MDgb2cirbK94+1lAirjx8rt79IUESJG14u6e+MmyvFbS7tHXKm5B1rTi7p5dAD1AimZmbkHWdeIWZF0rIAVIqTodCD8PSNFqEEgBUrgFmVuQ5Ti/fHKu+mNmUvQ5C2ZSdK2YSdFBk5mUuFbMpESAiSRFI26SFF0nkhRdK5KU+KJdhlTaPbqvSFI0rUhSImBQLr5JfgykaGYGUnSdgBRdKyAFSKHdo9dL1VoBKUAK7R7aPbR7hty9AaQAKVVvvOHnkaRo4AOkAClACpACpAAplXiAdo+28QIpuk5ACpACpAAplWxQVbREGZzVh0EZnNW1YnBWT8MYnI1rxeBsBJiYSUmg7lvz1tpYGhm8Rn1F2a2+j1ecjRd+Hm6AFH3jBVJ0rYAUrf5CLQIpca2AFCBFfoGtWI+YV5wVgY4Xc5O9xkxKfNHOA2Z4n3aPWH/MpOj1x+/u0QuwXJA79TFJil74QIqoFZCiL5K8LL7cDgRSxPoDUvT6A1KAlK1aFbGvN9bPyUaLJR9Vfx5IERdJIEX2LkmKvkYCKWL9ASl6/QEpegHuVHJS/ntIUvTCB1JErYAUfZEkSSFJGXL316gHLW5B1tYq7u6JzIGUQWGSHwMpmpnDYgGkiFoBKUDKNqx9JCli/ZGk6PVHkkKSEmvnbPV52j363QXc3aPVGXf36J7i7h5dK+7u0eovHMa5uyeuFXf3RE42JCn66YQkRdSKJEU/ydHuod1Du0eul1HbX7Hvo90TAYNJtnfKfzeQIm68tHv0hQRIkbVicDZ+siyvVbR79LWKmRRNKyBlN0DKxRnrfHzG2nfOu7pCuycs4J6u2tqCNTeWXOkUnremN61unrXaf5+y7lv7bfXnj7i5um/ut+aVo748dXvBGuuLgxcJ9FSDvXeestUXH5ZTjjJQbMfHAVLaXy26q7/6+qIrTw3A96OTtvLqXje1l60DrctHXGlVu3bampeP2OqFPRP3Ou2eCDCtXpyxxgcnXBknf7r0tHC37ixZ/faCO63CIulKp40la64tWv3aGat9fNLNFR5P84t5d1oFTwUA9gTknT8ccAcpvdcft9rnZ13pdG+tOufKU2EtaN1atPrVU25qL1sHmp/P+dLqxrx1rxyz/oUZIGU7ThZV/MzVi3us/tfjcjwd6+1V/fmw8W41XLvTX2/fPT/YTKr+t47788Lg3k5rMezvCzoFoAsb77j/tiq/v7Y2P0idhj32nf5aHnyr/LeO+7Pa/37AVl/wlaT0Xnvclj+bdeWpoHNIMnfaN1v9fcFXAaDG9UHV3x8S8q0e+45+/bMF61151voXgZSJU1oMaIAUfYofSNG0AlI0ncJiDKToMylASpqvgBRBLyBFL8AYRGz354EUwchf/yZjIEXTCkjRdAJS0tZHICXNV0CKoBeQklaE2w0km/18IEUwMpCSFNECKbqnSFL0NRJISfMVkCLoBaToBbgZQOzE54AUwchACpDytQeq7pcDKfoaCaToaxUzKaJWQIpegDsBJJv9HUCKaOa7zxntHk0rkhRNJ9o9aesjkJLmK5IUQS8gJa0IN4OI7f4ckCIYmSSFJIUkZeLD/0CKvlaRpIhaASlAyqi3sHELsvaKiUFfbkHWtOIWZE2n4CluQda14hZkXStuQY4zAS/mFn0xN14nRZ0zoN2jnU5o92g60e6JL9ibJcgkKWm+ot0j6EWSklaEmxXmdn+Odo9gZNo9tHto99DuifwiQJIUkpQq9mmSFJKUpI12s3SFJEUDOpIUTSeSlLRDHElKmq9IUgS9SFLSirAKGkv9GSQpgpFJUpIAD0jRPcUtyPoaCaSk+QpIEfQCUvQCTIWLqv48kCIYGUgBUmj30O6h3TP27wJicDbOBLR7aPckbbS0e3R4K2tFkqJrR5ISX7TLBzGSlDRfkaQIepGk6AVYLsid+pgkRTAySUoS4AEpuqeAFH2NBFLSfAWkCHoBKXoB7hSUlP8eIEUwMpACpNDuod1Du4d2T6QjUd5XR/mYdk9EXCAFSCm3a8b9mCRF9xRJin6QI0lJ8xVJiqAXSYpegKOQVxXfA6QIRiZJIUkhSSFJIUkhSYkc9qvYi0lSIuICKUDKuMlJ+ftJUnRPkaToBzmSlDRfkaQIepGk6AVYBYmN8jOAFMHIJCkkKSQpJCkkKSQpkcP+KHtv+XtIUiLiAilASjkJGfdjkhTdUyQp+kGOJCXNVyQpgl4kKXoBlqlqpz4GUgQjk6SQpJCkkKSQpJCkRA77VezXJCkRcYEUIGXc5KT8/SQpuqdIUvSDHElKmq9IUgS9SFL0AqyCxEb5GUCKYGSSFJIUkhSSFJIUkpTIYX+Uvbf8PSQpEXGBFCClnISM+zFJiu4pkhT9IEeSkuYrkhRBL5IUvQDLVLVTHwMpgsaVM3oAACAASURBVJFJUkhSSFJIUkhSSFIih/0q9muSlIi4QAqQMm5yUv5+khTdUyQp+kGOJCXNVyQpgl4kKXoBVkFio/wMIEUwMkkKSQpJCkkKSQpJSuSwP8reW/4ekpSIuEAKkFJOQsb9mCRF9xRJin6QI0lJ8xVJiqAXSYpegGWq2qmPgRTByCQpJCkkKSQpJCkkKZHDfhX7NUlKRFwgBUgZNzkpfz9Jiu4pkhT9IEeSkuYrkhRBL5IUvQCrILFRfgaQIhiZJIUkhSSFJIUkhSQlctgfZe8tfw9JSkRcIAVIKSch435MkqJ7iiRFP8iRpKT5iiRF0IskRS/AMlXt1MdAimBkkhSSFJIUkhSSFJKUyGG/iv2aJCUiLpACpIybnJS/nyRF9xRJin6QI0lJ8xVJiqAXSYpegFWQ2Cg/A0gRjEySQpJCkkKSQpJCkhI57I+y95a/x0WSsvKLR6zz9n5rv/OktZef8nF1Dlnz07PWWF/k2kqDrxasdfmIj+ct55/W/z3m7rmr315w95hcevzGWWv+5zFrdQ658lVr+UkLl5t1Kvi99vWV876Hx9f88BRe32rtdPr15vWz1n73qPUv7Jk4hLuAlM4b+6z2wXG79MXs2ER6KUL1qZ8PkWCInMuR/aQ/bqyfc6NRpunyjTPWe3XvxM1cJvDuW/v9aXVrzlobvnzV3DhnAZ6y59PD2/oHJ6zz5j4LiWb5eZ3kx63W07Z8/bRd+mrOjV6NPx2z/vMPudIpPEet3iE3GmWerq0tWPvOeYfr+qIrrZavnbJG/7CtAin32j5Ait5aAVL0ViGQovkKSNE9BaQkaAWkyDAU0swMpDy8BVJK/SsgRdtMQooDpOiLJJCi+QpI0T0FpCRoBaQAKaW9fpQUlHZPpD1Eu0ePs2n3JGhFu0c6MdLu0T1Fu0fXinaPphVJSomuSFK0Ey9Jin6KC8ROkqL5iiRF9xVJSoJWJCkkKaW9niQlkoqM0uMjSdGIO2hLkpKgFUkKSUqF61SoP5IUvf5IUjStSFJKdEWSop14SVL0UxxJiu4pkhTdVyQpCVqRpJCklPZ6kpQKTygkKRpxk6ToOg20IkkhSalwnSJJSas/khRNL5KUEl2RpOinXu7u0U9yzKRoviJJ0T1FkpKgFUkKSUpprydJqfCEQpKiETdJiq4TSYquFXf36Foxk6JrRZKiaUWSUqIrkhTtxMtMin6KYyZF9xRJiu4rkpQErUhSSFJKez1JCkmK1O8PJ/oqL+7u0fVcZiZF8h5Jiu4pkhRdK5IUTSuSlBJdkaTop15mUvSTHDMpmq9IUnRPkaQkaEWSQpJS2utJUipMCJhJ0YibmRRdJ2ZSdK1IUnStSFJ0rUhSNK1IUkp0RZKinXiZSdFPccyk6J4iSdF9RZKSoBVJCklKaa8nSSFJkfr9Vc6jkKRoJ5NMc2ZSNL1IUjSdgq9IUnStSFI0rUhSSnRFkqKfeplJ0U9yzKRoviJJ0T1FkpKgFUkKSUpprydJIUkhSckVBZACpIyyKA77HiAFSAlt96qvxvriRNbuLOEtvyVJyW0kYUEgSdFNT5KiL5JAiuYrkhTdU0BKglYkKTLMAClxX5mZPTDs5LATXwNStM2Ewdm4kTfzKZCi+QpI0X0FpCRoBaQAKaVAYrN1eqvPASmRFhG3IGsDViEm5MXcErTixdykWJvBWd1TDM7qWjE4q2lFu6dEVyQp2omXJEU/xQU6J0nRfEWSovuKJCVBK5IUkpTSXr9VarLZ10lSSFKkk215sCr/MUmKdjoZpE4kKZLfSFJ0T5Gk6FqRpGhakaSU6IokRTvxkqTopziSFN1TJCm6r0hSErQiSSFJKe31myUlW32OJIUkRTrZ5pOT8vskKdrphCRF14kkRdeKJEXXiiRF04okpURXJCn6qZdbkPWTHDMpmq9IUnRPkaQkaEWSQpJS2uu3Sk02+zpJCkkKSUrEA+XEqIqPeVl87SRHkqLpFDxJkqJrRZKiaUWSUqIrkhTtxMtMin6KC0ROkqL5iiRF9xVJSoJWJCkkKaW9frOkZKvPkaRETtG8TopG3IM5ixtnrPfqXtvKbDv9dSAFSKnac0AKkBIOi1VfvOJs3FdACpBCuyfigSraO+WfQbtHg1/aPZpOtHt0nYJWtHs0vWj3lCIg2j06mTM4Gyfu8qmZJEXzFe0e3VMkKQla0e6RExeSlLivSFIip2jaPRpxh9MJtyAnaMWLuUnJHUmK7ikGZ3WtSFI0rUhSSFJkwi73PklS4sRNkqIlJ2VPkaToniJJSdCKJEVe50lS4r4iSSFJkU625dmK/MckKdrpZJA6kaRIfiNJ0T1FkqJrRZKiaUWSQpIiE3b51EuSEidukhSSlLIHqv6YJEWvvxZJirzOk6TEfUWSQpIinWzzyUn5fZIU7XRCkqLrRJKia0WSomtFkqJpRZJSSlK6b+yz+ocnrHbzrIWBVQ9XMHNzY8nad867ukKS4kGf/GOofX7Wum/ut9WfP+Lq6iw/5U+rtXkLMyCefNVcP2f12wuutKp/csral5603muPu/JU8/Jhq90440qrxl9O2Mq/PuZKp7AWtK4cdaVTWLOCz1t3PK7ri660ql07bc3LR2z1wp6Jv/6ViyRl5a0nrPPJGWuv+Vm8WxtLVnO2cIciC7Ggpw0uPJbW+pLVr52x2scnXV2NT8+60iosjgFQvPkqLNzefNVaW7TGp7NW/9spX576fM5a637WqVB/za8WLECdt/prfjHvqv4GWoV1fc0XkN9b1315qn1j3rpXjln/wgyQEnrGq28dsO7VWevcXpJ7eOVZjao/Doaurc2P3Qopt0bG/bi+vuhGo0zz9t2g1YI/rW770iroFEDFm1bB5yFNyZ5PD2+DTlm6M27NVPn9Gcx50Ch7DOFAVeW/saqf5c1TQa/gqwAFVf0bq/o5ISHPnk8Xbz9bsN6VZ61/EUgZUBqQovUJQ0EAKQlaASnSYgyk6J4CUnStgBRdKyDF+eAskKKbGUhJ0ApIAVIig/GjnoCBFL3+gBRdKyAFSEmO0mj36Lez0u7RtKLdo+mUxfK0ezS9aPdoOmW+ot0j6EW7p0hNJCk6cZOkJGhFkkKSQpIieWDUZGnY95Gk6GsVSUqRCfKvb+Ti7h4gRTczkJKgFZAibVDMpOieot2jawWk6FoBKUAK7Z67QsQ34p+h3aNpS7tH0ymL5Wn3aHrR7tF0ynxFu0fQi3ZPkZpIUnTiJklJ0IokhSSFdo/kgWFtm1G/RpKir1UkKUUmoN0jJAYMzgq0/bWOJCmaViQpmk7ZiZckRdOLJEXTKfMVSYqgF0lKkZpIUnTiJklJ0IokRTpFM5Oie4qZFF0rkhRdK5KUIhOQpJCkJM/ohFNI7CJJiWuT14wkRdMpO/GSpGh6kaRoOmW+IkkR9CJJKVITSYpO3CQpCVqRpJCkMJMieWDUuZNh30eSoq9VJClFJiBJGZIKZCdfZlIE2mYmJZouZT7KvyVJ0T3F7+5J0Irf3SPXIb+7R/QVSUqRmkhSdOImSUnQiiRFOkUzk6J7ipkUXSuSFF0rkpQiE5CkkKTIJ498EhB7n5kU7XRCkqLpFHxGkpKgFUmKvJ6RpIi+IkkpUhNJik7cJCkJWpGkkKQwkyJ5YNhsyahfI0nR1yqSlCITkKSQpMgnj1h6kv88SYp2OiFJ0XQiSdF1GmhFkiKvZyQpordIUorURJKiEzdJSoJWJCnSKZqZFN1TzKToWpGk6FqRpBSZgCSFJEU+eeQTk9j7JCna6YQkRdOJJEXXiSQlUas7S8brpAiakaQUqYkkRSdukpQErUhSSFKYSZE8MOrcybDvI0nR1yqSlCITkKSQpJCkCB6IJUejfp4kRTjBff28cHdPglbMpMjrGTMpoq9IUorURJKiEzdJSoJWJCnSKZqZFN1TzKToWpGk6FqRpBSZgCRFOEXzirMicd99zphJ0bQiSdF0YiZF14mZlEStmEnRUieSlCI1kaToxE2SkqAVSQpJCjMpkgeGzZaM+jWSFH2tIkkpMgFJCkmKRtOCTuEkR5KineZIUjSdSFJ0nUhSErUiSdHWfpKUIjWRpOjETZKSoBVJinSKZiZF9xQzKbpWJCm6ViQpRSYgSRESAmZS9BMKSYqmFUmKphNJiq4TSUqiViQpJCl5AlLfJ0nRiZskJUErkhSSFGZSJA+MOncy7PtIUvS1iiSFJEWjx1zCQpKin1BIUjStSFI0nUhSdJ1IUhK1IknR9kJmUorURJKiEzdJSoJWJCnSKZqZFN1TzKToWpGk6FqRpBSZIN+FMTN7IP+JSbwPpOhmBlIStAJSgBTaPZIHhrVtRv0akKKvVUAKkKJFXLR7knUKcTPtHi1ypt2j6US7R9eJdk+iVrR7tDWedk+RmkhSdOImSUnQiiRFOkXT7tE9RbtH14okRdeKJKXIBPmODu2eXHoSTiXZxeDsN1pkmsTekqRoWpGkaDoFn/ELBhO04hcM3l+3Y2tU9nl+waDoK5KUIjXdT1LWlmSzZabbrrduIcVZOhD0v6fVgnRqH7W/Pcr31Z1pFXQKi2RILi59NefmupekLLqpveAp35DiZ50aaOUZUu48Zx1HV2tjyZbDnJKj+guPhSSlyATukpSVtw5Y55NZa6+dG2x4YTGf9DUwc9hMKh68G/fnhY130tps9vfX1jxCyoI7rYKvamGBvDnr5gqPp+HMV0Gn+u0FW3ZWg6HdEx7bZjUwqc81N865W6fCOtcMh4T1JVdX6/Y5W/7yrJvay9YBb/XXuTFv3SvPWv/CjOWBYRLvu2j39N7cb82PTlnjy3kLm7CHKyxGXi8P+pQfA1oJvr21YI3Pzlrr8hFrX3rSzdXqH7bmBydd1F3RVwv+atDJ+pTXyWvtdf503FbqB11dvdpBN3WXXwOafznhqv4a12et/e5R61/YA6QEMuu8sc9qHxy3S1/MujkRhBNciJy3q5006s8NseC4aUzV3798a35wuhz137Rd3+fuhPn5rC1/fMJ6v9o78cLPn4h6r+61Zu+QK1+F+gubb0gntssfo/zccOIdtAscJay12wuuNMp0Xf33p1z5PO95b++3Wgd91d+1U9boH7ZVIOVeHwpIEYeZ7j436F1WDRnj/jwgRZziB1LkhRhIET11a86AlPg8gzcYiT0eICX+HLpo9wApQEp2+qryLUlKvPDziyVJSkL9kaTIqQ1JilZ/oRaBlLhWQEoktqXdo5/kSFJErUhSSFIi6804aSZJSnyDy8O45/eBlPhzCKREFg0gRdx4b80ZkCJqBaQAKZH1BkiJb1Ke4aKqxwakxJ9/ICWyaAAp4sYLpMgb7yUgRdaKmRS9/khS4htcVRCx3T8HSIk/h0AKkCJvHLHTHkmKuKEAKbLXgBTRUwzOTsUdREAKkCIvjtlGTJKiL5JAiqgVkCLXIZAiegpIAVIiB+1sLxvl7TK3IBepibt7Eu4u4HVS5LsLuLunWGexyJq7exLqj7t75Prj7h6t/kJdkqTEtaLdE6FQkhT9JEeSImpFkkKSEllvRjntZt/DTEp8g4uBubfPAynx5xBIiSwaQIq48TI4K2+8DM4meIpXnJV9BaTENzhvMBJ7PEBK/DkEUoAUeTHMTm7ltyQp4uZLkiJ7jZkU0VPMpDCTEtnDyut0ysfMpHy/SE3MpCT0xJlJkXvizKQU6yx2imMmJaH+mEmR64+ZFK3+Ql2SpMS1IkmJUCjtHv0kR5IiakWSQpISWW9STrnlP0u7J77BxcDc2+eBlPhzCKREFg0gRdx4mUmRN15mUhI8xUyK7CsgJb7BeYOR2OMBUuLPIZACpMiLYfkEl31MkiJuviQpsteYSRE9xUwKMymRPSxbn0d5y0wKMylyX7f8W4EbzKTI2jGTEj+d5E90zKQwk1JeZ6r4mJkUrf5CLZKkxLUiSYlQKO0e/SRHkiJqRZJCkhJZb0Y57WbfQ7snvsHlYdzz+0BK/DkEUiKLBpAibrzMpMgbLzMpCZ5iJkX2FZAS3+A8g0n+sQEp8ecQSAFS5MUwO7mV35KkiJsvSYrsNWZSRE8xk8JMSmQPK6/TKR8zk8JMijxXUe4NM5Oizw8wkxI/neRPccyk6J5q8Dop8trFTIpWf6EWSVLiWpGkRCiUdo9+kiNJEbUiSSFJiaw3Kafc8p+l3RPf4PIw7vl9ICX+HAIpkUUDSBE3XmZS5I2XmZQETzGTIvsKSIlvcJ7BJP/YgJT4cwikACnyYlg+wWUfk6SImy9Jiuw1ZlJETzGTwkxKZA/L1udR3jKTwkyK3NdlJkWfFyhrxUxK/HSSP8Uxk6J7jJkUXStmUrT6C7VIkhLXiiQlQqG0e/STHEmKqBVJCklKZL0Z5bSbfQ/tnvgGl4dxz+8DKfHnEEiJLBpAirjxMpMib7zMpCR4ipkU2VdASnyD8wwm+ccGpMSfQyAFSJEXw+zkVn5LkiJuviQpsteYSRE9xUwKMymRPay8Tqd8zEwKMynMpNzVe9vlWRP1Y2ZS4qeT/CmOmRTdi8yk6Foxk6LVX6hFkpS4ViQpEQql3aOf5EhSRK1IUkhSIutNyim3/Gdp98Q3uDyMe34fSIk/h0BKZNEAUsSNl5kUeeNlJiXBU8ykyL4CUuIbnGcwyT82ICX+HAIpQIq8GJZPcNnHJCni5kuSInuNmRTRU8ykMJMS2cOy9XmUt8ykMJPCTAozKW4WV2ZS9DkLZlJ0rZhJiacD+RQlvE+SEteKJCVCobR79JMcSYqoFUkKSUpkvRnltJt9D+2e+AZXhgGvHwMp8ecQSIksGkCKuPEykyJvvMykJHiKmRTZV0BKfIPzCiXlxwWkxJ9DF5DSfWOf1T88YctfnLXlwaY3N/G3tbV5C7ewtu4suboaN+dt+epJV1ft6klr//2sda7Pubpa12Z96fThcav/6Rnr/q/v2upPZ3xcL81Y9zf7rPnekYnXXL72Q/011hetteGr/uq3F1zpFDSrfzlvnU/nXdVeWAtW33zCTUvzPhT88EFbvbjHR+3l1oDW6mFXvqpdO23Ny4dt9cKeiT+HLiCl9+Z+a3500upfzllYBLxcYZF0d31yypq9g+6u7upR6/WfcXV1Vo/40ql70Jqtp639hwPWeXu/j+u3+63VPmjN94+7qbus/t3V3vqiO42CVs3rs9Z995ir2gtrweqrj098g7sPJ1/PQfZffNjCodhN/X29DjT/61lX3mr8/Yy13z1ifSDlXsSz8tYT1rk6a+21c9a+c97FFRKUEKOGto+nq9W/R7eBcD1d/Ysz5vHypNHKSzPWe+Uxa/zxqIWTiperfmPWml/Ou6i7rP5DghI24JCoeKq/QbpzZ8mVVt0PTlv/F4+6q7/L//yQO0hZ+eWjVv/rcTe1l60BzZu+6q9zY966V45Z/8LMxJ9DF0nK6lsHrHt11jq3l0a+60V9FVL1z4XFMiyQ2XCal7etzsGJm6Z8OuHjeD81r03/Rw/ays9mrP5fx1z5atDaXD/npvZCjYZDQoCUACheai88jgApYW1Q15Gd+HO990/Z5ecfZl0o3TWar73s/ZVXHrPlv5925al7vvJVf53PFqx35dkB+GbaTeotkBK5FRZI0TbeSRl3N/69QIp++yqQomsFpOhrFZAi+gpIKZqKJEW/64Ekpeid3QQrQIq4QJKkJCU1QIq+JgApYg0CKUVTASlAym6CjVEfK5AiLpBACpAitG5GqUMgRaxBIAVIGbXPTpJS9M4oC9WkvgdIERdIIAVIAVKSPFD57BOQUtxoSFJIUiYFDjv59wIpQErlm8nd54x2T3E/GVbTJCliDQIpRVMBKUDKsIVlWr4GpIgLJElK0ikaSCnuJ8PWCyBFrEEgpWgqIAVIGbawTMvXgBRxgQRSgBTaPUkeqDyhA1KAFGZSih6YFhAZ9u8AUoCUyjcT2j1Jrw9DkiLWIJBS3KBIUkhShm3u0/I1IEVcIElSkk7RtHuK+8mw9QJIEWsQSCmaCkgBUoYtLNPyNSBFXCCBFCCFdk+SBypP6IAUIIV2T9ED0wIiw/4dQAqQUvlmQruHdk/kVdPH8hqQUtygSFJIUoZt7tPyNSAFSBlr44hsRrR7ivvJsPWCdo9Yg0BK0VRACpAybGGZlq8BKeICSbsnKeoHUor7ybD1AkgRaxBIKZoKSAFShi0s0/I1IEVcIIEUIIWZlCQPVJ7QASlACjMpRQ9MC4gM+3cAKUBK5ZsJMynMpETagGN5DUgpblAkKSQpwzb3afkakAKkjLVxRDYj2j3F/WTYekG7R6xBIKVoKiAFSBm2sEzL14AUcYGk3ZMU9QMpxf1k2HoBpIg1CKQUTQWkACnDFpZp+RqQIi6QQAqQwkxKkgcqT+iAFCCFmZSiB6YFRIb9O4AUIKXyzYSZFGZSIm3AsbwGpBQ3KJIUkpRhm/u0fA1IAVLG2jgimxHtnuJ+Mmy9oN0j1iCQUjQVkAKkDFtYpuVrQIq4QNLuSYr6gZTifjJsvQBSxBoEUoqmAlKAlGELy7R8DUgRF0ggBUhhJiXJA5UndEAKkMJMStED0wIiw/4dQAqQUvlmwkwKMymRNuBYXgNSihsUSQpJyrDNfVq+BqQAKWNtHJHNiHZPcT8Ztl7Q7hFrEEgpmgpIAVKGLSzT8jUgRVwgafckRf1ASnE/GbZeACliDQIpRVMBKUDKsIVlWr4GpIgLJJACpDCTkuSByhM6IAVIYSal6IFpAZFh/w4gBUipfDNhJoWZlEgbcCyvASnFDYokhSRl2OY+LV8DUoCUsTaOyGZEu6e4nwxbL2j3iDUIpBRNBaQAKcMWlmn5GpAiLpC0e5KifiCluJ8MWy+AFLEGgZSiqYAUIGXYwjItXwNSxAUSSAFSmElJ8kDlCR2QAqQwk1L0wLSAyLB/B5ACpFS+mTCTwkxKpA04lteAlOIGRZJCkjJsc5+WrwEpQMpYG0dkM6LdU9xPhq0XtHvEGgRSiqYCUoCUYQvLtHwNSBEXSNo9SVE/kFLcT4atF0CKWINAStFUK28dsM7VWWuvnbP2nfMurtadJautLdjyrXlXV6tzKCneHFawlX3tB9+x/o8ftv6Le9xdqy8+bG6ui3us9/Kj1vjPZ2z5+mkn1xmrf3bWml8tuKi7rP5bG0tWv71gy2u+6q/x5by1by5Y54tFN1fvTyes/9Ij7movrAduau/rdaD3+uNW++iEk9r7Zg1oOKu/zo156145Zv2LMxPfb8zMHqhssxpx2Kn35n5rfnzKwgLQWF90c9VvLw4WyrBYerk63cMTN80/+OVHD9nKG09Yb/mgq6t76Slr/ccBX9c7B6xVe8pajaf9XO8dteZHp9zU3WANcFh7YQ1ov3/SuqtHrdc57OdqHXZVd9k60HnHaf01nNVf42lrfnDSVf01r89a+92j1r+wZ+L7jQtI6b65z+ofnrDazbP3Tk7h9DThK6QozY1zFk50nq5u78jETfMPkPL8w9ZbfcY6H51xdbU+PGW1vzzr5qr/+ZjV/3jEOr/5nvX+9VEf18uPWee3T1jzj89MvObyNV9bmx8cDLzVYHfliK38j+/Z6it73Vwhie7+9bSr2gtrQdh4PdVfeCyN945Y77W9Pmovtwa03j3iq/7+ftqal4/YKpByr+3TeWOf1T44bpe+mLVR73qp+vvCghlaPtsx6DbOz1xZOeoPUl542HphkYwM9k3q82GDq9oXY/28z2dt+eMT1vvVXlfPYe/VvdbsHXKlVai/kKiE9s+k/LPZ37vyztODtso/gPqIKXIVP2f119+zzq1zrnQK2oUkeqx6uaXP6ql/T/3949b/yeTTgfLz3moddKXV8rVT1ugfBlKyJwpIEYeZ7j5nQIquFZBSnP3K6q38FkjRPQWk6FoBKVr9hXoEUuJauWj3ACl64QMpulZASrzw86ACpOieAlJ0rYAUrf6AlOE6ASmRSJF2z3Dj5De5y7R7tKiWdo+m0625QX+edo9Wg7R79LYQ7R5NK9o9pf4tSYp+OiFJ0bUiSdE2OZIU3VMkKbpWJCla/ZGkDNeJJIUkZfwhTpIULSEgSdF0IklJqkmSFC0dCMO1JCmaViQpJCkjT+KTpOgnOZKU4SeUrGVHkqJ7iiRF14okRas/kpThOpGkkKQkndqyja3wliRFSwhIUjSdSFKSapIkRUsHSFJ0nUhSSFJIUnbgNVVIUoafUDLQJEnR0wGSFF0rkhSt/khShutEkkKSknRqyza2wluSFC0hIEnRdCJJSapJkhQ9IWAmRdOKJIUkhSSFJCVpIypAYal+xv0aSYqeDpCk6FqRpAxPCPJ1y4u5xbUiSSFJGX+zJEnREgKSFE0nkpSkmiRJ0dIBZlJ0nUhSSidBXidFP51wd4+uFTMp8dNJ/hRHkqJ7iiRF14okRau/UIskKXGtSFJIUpJObfnN7f77JClaQkCSoulEkpJUkyQpekLATIqmFUkKSQozKcykJG1E94GwVDtVfJ4kRU8HSFJ0rUhS4ulAuW5JUuJakaSQpIy/WZKkaAkBSYqmE0lKUk2SpGjpADMpuk4kKaXTIDMp+umEmRRdK2ZS4qeT/EmOJEX3FEmKrhVJilZ/oRZJUuJakaSQpCSd2vKb2/33SVK0hIAkRdOJJCWpJklS9ISAmRRNK5IUkhRmUphJSdqI7gNhqXaq+DxJip4OkKToWpGkxNOBct2SpMS1IkkhSRl/syRJ0RICkhRNJ5KUpJokSdHSAWZSdJ1IUkqnQWZS9NMJMym6VsykxE8n+ZMcSYruKZIUXSuSFK3+Qi2SpMS1IkkhSUk6teU3t/vvk6RoCQFJiqYTSUpSTZKk6AkBMymaViQpJCnMpDCTkrQR3QfCUu1U8XmSFD0dIEnRtSJJiacD5bolSYlrRZJCkjL+ZkmSoiUEJCmaTiQpSTVJkqKlA8yk6DqRpJROg8yk6KcTZlJ0rZhJiZ9O8ic5khTdUyQpulYkvu/S0AAAEWtJREFUKVr9hVokSYlrRZJCkpJ0astvbvffJ0nREgKSFE0nkpSkmiRJ0RMCZlI0rUhSSFKYSWEmJWkjug+Epdqp4vMkKXo6QJKia0WSEk8HynVLkhLXiiSFJGX8zZIkRUsISFI0nUhSkmqSJEVLB5hJ0XUiSSmdBplJ0U8nzKToWjGTEj+d5E9yJCm6p0hSdK1IUrT6C7VIkhLXiiSFJCXp1Jbf3O6/T5KiJQQkKZpOJClJNUmSoicEzKRoWpGkkKQwk8JMStJGdB8IS7VTxedJUvR0gCRF14okJZ4OlOuWJCWuFUkKScr4myVJipYQkKRoOpGkJNUkSYqWDjCToutEklI6DTKTop9OmEnRtWImJX46yZ/kSFJ0T5Gk6FqRpGj1F2qRJCWuFUkKSUrSqS2/ud1/nyRFSwhIUjSdSFKSapIkRU8ImEnRtCJJIUlhJoWZlKSN6D4Qlmqnis+TpOjpAEmKrhVJSjwdKNctSUpcKxdJSvfN/db46JTVv5y3+u0FJ9eiNdb9Xd3eYTebW1Zo/Rcetvb7J1zq5cdPC1b/at7qn85aq3PQ2r/d7+YKj6f5/nEndXev/hufzVnr/ZPW/T/PWq//jJtr9bXvWv+fH3JVgyuvf9eaX85Tf8Le0fjvM9Z+54Cb2svWgeafn/VVf9dnrfXuUetf2DNxr7uAlJW3nrD2J2esdeuctTaW3Fy12/O2vDbn6mp3Dk7cNBmcZG/7P37YGn9+1pVO4XkLgOLJT631JWuuLVrt+mlbvnrCzRUeT+PmnCut2n+bte7yQVv51eO2+tIjbq7+8w9b/wcPuqrB3uuPWy20Ep2tVeGQ56r+NpaseWvRlv/7lJvay9aBxhfO6u/GvHWvHLP+hZmJe90JpBywztVZ66wtjdwG6VTcPmjfOW+1tXm5hx4mx3fiCqfeDA68vM0gZSf+/Sl/R4ibq/bFOD8veKq1cc5qX83ZpZtn3Vzh8TSdadW9Omsrv3vS+j97xC7/8EE/lzNACWtA77XHbfnz2R1Zf1Lqr7l+zlX9hdoN0LT8pZ/ay9aBhrP663y2YL0rz1r/IpAy2HBX3zpgYVHq3AZStloEgBQdBt1Byt3z1rqzZLW1BVcbSoBxbxvKAFJ+e8D6P33EHZR7ORxkj2MAKZ8BKcoBItTfssPDZ8Mb0AEpxSEZIEXfeIEUXSsgRdMKSCmuR9nmv1veAin6MC+QImoFpBQXBSBF20xCygKk6FoBKZpWQEpxPdotcJI9TiBF3HhDu4ckRWvBASnFRQFI0TYTIEXXKWgFpGh6ASnF9Sjb/HfLWyAFSFFaXUl/BkgpLgpAiraZACm6TkCKrhWQUlyPdgucZI8TSAFSkgBEuckESCkuCkCKvqHQ7tG1IknRtAJSiutRtvnvlrdACpACpGzDq1zmFwAgRdtMSFJ0nUhSdK2AFCAl1EvVl7c7xsJGzkyKCHQkKcVFAUjRFwiSFF0rkhRNKyCluB7lD1C74X2SFHHjBVK0odnQDgJSiosCkKJtJiQpuk4kKbpWQEpxPdoNYJJ/jEAKkEK7h3ZP5VHoqNEqSYq++ZKkaFoBKUDKqOvRsO+j3aPVX9CQF3OL16CLl8UnSdHNDKToWgEpmlZASnyBzCcWXt8nSSFJIUkhSSFJGeIBfnePtki2eVl8uSfOy+Lr4ASkaPXH4KyuEzMppQ2PJEU78YZYkCRF14okRdOKJEUHAo9pCpCib77c3SNqxeBscVEAUrTNBEjRdQpaASmaXkBKcT3yCCLDHhOQIm683N0jJ5kkKSQpI7ePSFK0jRdI0XUCUoCUUC9VXwzO6poyOBuvQQZnIy8R3L5z3sLiXXXhjvvzgBS98ElSNK2AlPgCOSzB8PI1khSSFAZnS8lH1cVJu0fbTALgACm6VkCKphWQAqSMe3ja7PtJUrT6C9qRpMRrkCSFJMXGhU7u7tFOctzdo+kUToXc3RNftMv1SpKi+4rBWVErBmeLBUiSohM3SYquFUmKphVJSnE9KkOA94+BFHHjZXCWwdlRixlI0TYT2j26TkErIEXTC0gBUjZr14z7Odo9Wv0FnWn3xGuQdg/tHto9EQ9UPYxGu0c/8dLuiS/a5cMgSYruK9o9ola0e4oFSJKiEzftHl0rkhRNK5KU4npUhgDvHwMp4sZLu4d2z6jFDKRom0mIBYEUXSsgRdMKSAFSxm3tbPb9tHu0+qPdM7z+aPdEon5eJ2W4cfJAyt092kmOdo+mE3f36LUX6pAkRfcV7R5RK9o9xSIkSdGJmyRF14okRdOKJKW4HuUBfDe8D6SIGy/tHto9oxY0kKJtJrR7dJ2CVkCKpheQAqRs1q4Z93O0e7T6Czpzd0+8Bmn30O7h7p6IB7i7Rz+hVq0Vd/fEF+3yYZAkRfcp7R5RK9o9xQIkSdGJm3aPrhVJiqYVSUpxPSpDgPePgRRx46XdQ7tn1GIGUrTNJMSCQIquFZCiaQWkACnjtnY2+37aPVr90e4ZXn+0eyJRP3f3DDdOHki5u0c7yXF3j6YTd/fotRfqkCRF9xXtHlEr2j3FIiRJ0YmbJEXXiiRF04okpbge5QF8N7wPpIgbL+0e2j2jFjSQom0mtHt0nYJWQIqmF5ACpGzWrhn3c7R7tPoLOnN3T7wGaffQ7uHunogHqr5jhXaPfuLl7p74ol0+DJKk6L6i3SNqRbunWIAkKTpx0+7RtSJJ0bQiSSmuR2UI8P4xkCJuvLR7aPeMWswrbz1hnU/OWHvtnIWBVQ9Xa2PJarcXbHlt3tXVeveorf78EVfXysuPWfPKUat9fNLV1fj0rAsvZX4Op7jmxjl3vqrfXrDG+qIrrcJ60Hv7gPV/OjN20jfqurTZ9/VffNhWX5pxVX/d/73P6h+ccFV7YS1ofjHvylOhDlu3Fq1+9ZQ7rVp/O2Pda3N+rr+cspX2Yev/ZM/E689Fu6f7xj6rf3jCajfPugGC2tqCNTeW3BVZKHxvMFD/y3Hr/tv3XC3cAeQ6y0+58VMGu4PUYsMPjIeFO8wOBFDJHqOHt40PT1rnzf22etEXpLT/cMDqfz7mqgab7x2xlV8+6q7+WleOuvJU8HXjo5O28uped1qt/vxR6//C0fWzR6x/YcYu/9ODQEo4rXTe2Ge1D47bpS9mbdxhraq+Pxg6nHyrnksY9+eFAauq/o1V/ZzlG2es9+reiZu5fPLtvrXfn1bhtW42fPkqpDsBUqryQxU/JyQDnTf32erFyZ/k8r5qtZ625eun7dJXWiutCi22+hmNPx2z/vMPuau/Vu+QK08FHevvH3eRDuQ9xfvD260ukhQgRe+pAinDDZ0veCBF8xWQonsKSEnQCkhxB4759XG3vA+k3Nr8RESSsrkum53qSFIStCJJkU7XJCm6p0hSdK1IUnTI9AIxQAqQIm0am8FJ9jkgRV8kl4EUyW9Aiu4pIEXXCkgBUkaKt2j3aLF8mGeh3aMXGe0ezVe0e3RP0e5J0Ip2z0j7oZcEw8vjIEkhSZFOtllqstlbkhT9JEeSomlFkqLpFOqRJEXXiiRFh0wg5fvfiEWSop14SVK+8YxSQCQpmq9IUnRfkaQkaEWSQpKS2+eVNXuzP0OSQpJCkhLxwGap0bifI0nRTr0kKZpOJCm6TkErkhQdMjcDhkl8DkiJbFDc3aMXP+2eBK0YnJWgGEjRPUW7R9cKSAFSRoq3aPdosTztnrQCo92j+Yp2j+4r2j0JWtHuGWk/nERa4fnvJEkhSZFOtsPaHCQp+kmOdo+mFUmKphPtHl0n2j06YHqCFiAFSAFSIh4YBmajfg1I0TYVIEXTCUjRdQJSgJSRoy3aPVosT7snrcho92i+ot2j+4p2T4JWtHtG3hM9JRmTfiwkKZFTNIOz+gmFdk+CVgzOSskdSYruKQZnda0YnNUhc9Jwkv39QAqQIm0aw9obQIq+SNLu0bQCUjSdaPfoOtHu2X2AEkAFSAFSgJSIB4aB2ahfA1K0TQVI0XQCUnSdgBQgZeT+GzMp2uwAMylpRcZMiuYrZlJ0XzGTkqAVMykj74lZq4O3JCnRFIGZFP2EQrsnQStmUqI1l0+nSFJ0TzGTomvFTIoOmV4AiXZPJOoHUvTCB1IStAJSgJTImpOHtJT3gRS9/oAUIGWkeIt2jxbL0+5JKzDaPZqvaPfovqLdk6AV7Z6R9kMvCYaXx0GSEjnVkKTopxOSlAStSFJIUiJrTkp6kv+zJCl6/ZGk6JAJpOR+hTNJinbiJUlJKzCSFM1XJCm6r0hSErQiSSFJye3zo0IPSUrkVEOSop9OSFIStCJJIUmJrDn5dCTlfZIUvf5IUnTIHBUqqv4+ICWyYAApeuEDKQlaASlASmTNSQGT/J8FUvT6A1KAlJHiLdo9WixPuyetwGj3aL6i3aP7inZPgla0e0baD6tOInb7zyNJiZxqSFL00wlJSoJWJCkkKZE1J5+OpLxPkqLXH0mKDple4AZIiSwYQIpe+EBKglZACpASWXNSwCT/Z4EUvf6AFCBlpHiLdo8Wy9PuSSsw2j2ar2j36L6i3ZOgFe2ekfZDLwmGl8dBkhI51ZCk6KcTkpQErUhSSFIia04+HUl5nyRFrz+SFB0ygZTc/dMkKdqJlyQlrcBIUjRfkaToviJJSdCKJIUkJbfPjwo9JCmRUw1Jin46IUlJ0IokhSQlsuakpCf5P0uSotcfSYoOmaNCRdXfB6REFgwgRS98ICVBKyAFSImsOXnwSHkfSNHrD0gBUkaKt2j3aLE87Z60AqPdo/mKdo/uK9o9CVrR7hlpP6w6idjtP48kJXKqIUnRTyckKQlakaSQpETWnJT0JP9nSVL0+iNJ0SHTC9wAKZEFA0jRCx9ISdAKSAFSImtOHjxS3gdS9PoDUoCUkeIt2j1aLE+7J63AaPdovqLdo/uKdk+CVrR7RtoPvSQYXh6HiyRl5V8esc7b+639zpPWXn7Kx1V7ynqNQ7bSOOzq6tYP+tAn9zx1/uNJW724x11BrvzyUX9aDXx10JGnDlmvftA6taddaRXWg5V/edT6zz/kyle91/Za+w8HXGnV/c0+u/zDB13pFDa43q+/60qnsLd039xv/X/25SkvMOD1cbiAFK/i8Lj0UxNaoRUewAN4AA9U7QEgpYIXm6n6SeHnUeh4AA/gATyAB74TGMUeQAiKAQ/gATyAB/AAHvDmASCFJMVdL9tbkfB4WLjxAB7AA5PxAJACpAApeAAP4AE8gAdcegBIwZgujcmpZTKnFnRHdzyABzx5AEgBUoAUPIAH8AAewAMuPQCkYEyXxvRE8jwWTpZ4AA/ggcl4AEgBUoAUPIAH8AAewAMuPQCkYEyXxuTUMplTC7qjOx7AA548AKQAKUAKHsADeAAP4AGXHgBSMKZLY3oieR4LJ0s8gAfwwGQ8AKQAKUAKHsADeAAP4AGXHgBSMKZLY3JqmcypBd3RHQ/gAU8eAFKAFCAFD+ABPIAH8IBLDwApGNOlMT2RPI+FkyUewAN4YDIeAFKAFCAFD+ABPIAH8IBLDwApGNOlMTm1TObUgu7ojgfwgCcPAClACpCCB/AAHsADeMClB4AUjOnSmJ5InsfCyRIP4AE8MBkPAClACpCCB/AAHsADeMClB4AUjOnSmJxaJnNqQXd0xwN4wJMHgBQgBUjBA3gAD+ABPODSA0AKxnRpTE8kz2PhZIkH8AAemIwHgBQgBUjBA3gAD+ABPODSA0AKxnRpTE4tkzm1oDu64wE84MkDQAqQAqTgATyAB/AAHnDpASAFY7o0pieS57FwssQDeAAPTMYDQAqQAqTgATyAB/AAHnDpASAFY7o0JqeWyZxa0B3d8QAe8OQBIAVIAVLwAB7AA3gAD7j0AJCCMV0a0xPJ81g4WeIBPIAHJuMBIAVIAVLwAB7AA3gAD7j0AJCCMV0ak1PLZE4t6I7ueAAPePLAAFLC//gPBVAABVAABVAABbwp8P8BTuIkZ6IFsh8AAAAASUVORK5CYII=;" vertex="1" parent="1">
          <mxGeometry x="17" y="421" width="270.12" height="254" as="geometry" />
        </mxCell>
        <mxCell id="g_YQSqxhmDYYF9oPUH9T-10" value="&lt;p style=&quot;box-sizing: border-box; margin: 0px 0em 16px; line-height: 1.6; word-break: break-word; color: rgb(64, 72, 91); font-family: -apple-system, BlinkMacSystemFont, &amp;quot;Segoe UI&amp;quot;, Helvetica, Arial, &amp;quot;Apple Color Emoji&amp;quot;, &amp;quot;Segoe UI Emoji&amp;quot;, &amp;quot;Segoe UI Symbol&amp;quot;, &amp;quot;Liberation Sans&amp;quot;, &amp;quot;PingFang SC&amp;quot;, &amp;quot;Microsoft YaHei&amp;quot;, &amp;quot;Hiragino Sans GB&amp;quot;, &amp;quot;Wenquanyi Micro Hei&amp;quot;, &amp;quot;WenQuanYi Zen Hei&amp;quot;, &amp;quot;ST Heiti&amp;quot;, SimHei, SimSun, &amp;quot;WenQuanYi Zen Hei Sharp&amp;quot;, sans-serif; font-size: 16px; background-color: rgb(255, 255, 255);&quot;&gt;首先实现地图功能&lt;/p&gt;&lt;p style=&quot;box-sizing: border-box; margin: 0px 0em 16px; line-height: 1.6; word-break: break-word; color: rgb(64, 72, 91); font-family: -apple-system, BlinkMacSystemFont, &amp;quot;Segoe UI&amp;quot;, Helvetica, Arial, &amp;quot;Apple Color Emoji&amp;quot;, &amp;quot;Segoe UI Emoji&amp;quot;, &amp;quot;Segoe UI Symbol&amp;quot;, &amp;quot;Liberation Sans&amp;quot;, &amp;quot;PingFang SC&amp;quot;, &amp;quot;Microsoft YaHei&amp;quot;, &amp;quot;Hiragino Sans GB&amp;quot;, &amp;quot;Wenquanyi Micro Hei&amp;quot;, &amp;quot;WenQuanYi Zen Hei&amp;quot;, &amp;quot;ST Heiti&amp;quot;, SimHei, SimSun, &amp;quot;WenQuanYi Zen Hei Sharp&amp;quot;, sans-serif; font-size: 16px; background-color: rgb(255, 255, 255);&quot;&gt;生成一个合法地图：&lt;/p&gt;&lt;ul style=&quot;box-sizing: border-box; padding-left: 2em; margin-top: 0px; margin-bottom: 16px; padding-bottom: 1px; color: rgb(64, 72, 91); font-family: -apple-system, BlinkMacSystemFont, &amp;quot;Segoe UI&amp;quot;, Helvetica, Arial, &amp;quot;Apple Color Emoji&amp;quot;, &amp;quot;Segoe UI Emoji&amp;quot;, &amp;quot;Segoe UI Symbol&amp;quot;, &amp;quot;Liberation Sans&amp;quot;, &amp;quot;PingFang SC&amp;quot;, &amp;quot;Microsoft YaHei&amp;quot;, &amp;quot;Hiragino Sans GB&amp;quot;, &amp;quot;Wenquanyi Micro Hei&amp;quot;, &amp;quot;WenQuanYi Zen Hei&amp;quot;, &amp;quot;ST Heiti&amp;quot;, SimHei, SimSun, &amp;quot;WenQuanYi Zen Hei Sharp&amp;quot;, sans-serif; font-size: 16px; background-color: rgb(255, 255, 255);&quot;&gt;&lt;li style=&quot;box-sizing: border-box; list-style: initial;&quot;&gt;有边界&lt;/li&gt;&lt;li style=&quot;box-sizing: border-box; list-style: initial; margin-top: 0.25em;&quot;&gt;有随机、对称出现的障碍物&lt;/li&gt;&lt;li style=&quot;box-sizing: border-box; list-style: initial; margin-top: 0.25em;&quot;&gt;中心对称&lt;/li&gt;&lt;li style=&quot;box-sizing: border-box; list-style: initial; margin-top: 0.25em;&quot;&gt;初始时 两个Game Object分别在左下角和右上角&lt;/li&gt;&lt;li style=&quot;box-sizing: border-box; list-style: initial; margin-top: 0.25em;&quot;&gt;左下角和右上角是连通的（障碍物的布置有一定限制）&lt;/li&gt;&lt;/ul&gt;" style="text;html=1;strokeColor=#d6b656;fillColor=#fff2cc;align=left;verticalAlign=middle;whiteSpace=wrap;rounded=0;shadow=0;sketch=0;fontSize=12;" vertex="1" parent="1">
          <mxGeometry x="292" y="421" width="306" height="258" as="geometry" />
        </mxCell>
      </root>
    </mxGraphModel>
  </diagram>
</mxfile>
